<?xml version="1.0" encoding="utf-8"?>
<!-- Generator: Adobe Illustrator 17.0.0, SVG Export Plug-In . SVG Version: 6.00 Build 0)  -->
<!DOCTYPE svg PUBLIC "-//W3C//DTD SVG 1.1//EN" "http://www.w3.org/Graphics/SVG/1.1/DTD/svg11.dtd">
<svg version="1.1" id="Layer_1" xmlns="http://www.w3.org/2000/svg" xmlns:xlink="http://www.w3.org/1999/xlink" x="0px" y="0px"
	 width="539px" height="122px" viewBox="0 0 539 122" enable-background="new 0 0 539 122" xml:space="preserve">
<path fill="#15284B" d="M396.328,49.402c0.489-0.664,0.797-1.075,1.098-1.492c4.382-6.066,10.265-8.872,17.755-8.14
	c1.068,0.104,2.139,0.287,3.177,0.554c4.175,1.076,7.013,3.692,8.652,7.654c1.259,3.044,1.653,6.252,1.683,9.5
	c0.055,5.857,0.018,11.715,0.021,17.572c0,0.617-0.022,1.236,0.03,1.849c0.107,1.263,0.634,1.794,1.879,1.897
	c0.613,0.05,1.232,0.015,1.849,0.032c0.529,0.015,1.057,0.051,1.641,0.08c0.545,1.074,0.252,2.167,0.302,3.212
	c0.051,1.076,0.012,2.157,0.012,3.236c0,1.069,0,2.139,0,3.31c-0.579,0.091-1.014,0.217-1.449,0.218
	c-3.391,0.015-6.782,0.019-10.173-0.005c-0.688-0.005-1.385-0.09-2.06-0.228c-2.229-0.459-3.471-1.902-3.823-4.097
	c-0.146-0.906-0.139-1.843-0.14-2.766c-0.011-7.013,0.021-14.027-0.028-21.04c-0.012-1.687-0.143-3.396-0.449-5.052
	c-0.687-3.707-2.703-5.263-6.468-5.179c-2.575,0.057-4.798,1.005-6.689,2.739c-2.161,1.981-3.553,4.433-4.365,7.228
	c-0.669,2.305-1.041,4.648-1.029,7.063c0.031,6.166,0.01,12.331,0.004,18.497c-0.001,0.837-0.038,1.673-0.057,2.472
	c-1.591,0.464-8.209,0.577-11.613,0.221c-0.481-0.739-0.256-1.61-0.258-2.424c-0.02-8.478,0.009-16.956-0.032-25.434
	c-0.008-1.687-0.237-3.374-0.4-5.058c-0.044-0.454-0.191-0.903-0.332-1.341c-0.841-2.618-2.295-3.766-5.058-3.945
	c-3.179-0.205-5.912,0.808-8.153,3.091c-2.458,2.505-3.778,5.59-4.51,8.96c-0.393,1.812-0.559,3.648-0.552,5.508
	c0.022,6.089,0.01,12.177,0.002,18.266c-0.001,0.754-0.059,1.508-0.096,2.377c-1.388,0.284-2.69,0.126-3.976,0.154
	c-1.232,0.027-2.467,0.028-3.699,0c-1.288-0.029-2.591,0.133-4.007-0.163c-0.034-0.916-0.091-1.747-0.092-2.577
	c-0.006-10.405-0.004-20.809-0.005-31.214c0-0.694,0.024-1.39-0.031-2.08c-0.1-1.238-0.664-1.838-1.878-1.906
	c-1.146-0.064-2.298-0.014-3.507-0.014c-0.731-1.73-0.355-3.429-0.4-5.077c-0.043-1.598-0.121-3.21,0.128-4.885
	c0.476-0.073,0.842-0.178,1.209-0.179c3.468-0.008,6.937-0.021,10.404,0.023c0.756,0.01,1.531,0.171,2.26,0.387
	c1.999,0.591,3.055,2.012,3.234,4.049c0.107,1.21,0.068,2.432,0.095,3.655c0.675-0.012,0.781-0.518,1.015-0.879
	c1.311-2.033,2.968-3.737,4.915-5.161c4.866-3.56,10.207-4.067,15.815-2.279c3.072,0.979,5.295,3.082,6.791,5.932
	C395.396,47.339,395.758,48.189,396.328,49.402z"/>
<path fill="#15284B" d="M452.308,46.112c0.857-0.819,1.301-1.218,1.717-1.644c2.403-2.459,5.395-3.787,8.697-4.485
	c3.06-0.647,6.131-0.551,9.175,0.108c4.129,0.894,7.551,2.994,10.306,6.192c2.196,2.549,3.78,5.447,4.698,8.668
	c1.79,6.284,1.872,12.609,0.168,18.932c-0.625,2.321-1.594,4.503-2.931,6.501c-4.596,6.863-11.06,9.992-19.28,9.596
	c-2.82-0.136-5.454-0.885-7.933-2.225c-1.572-0.849-3.026-1.836-4.132-3.274c-0.221-0.288-0.522-0.515-0.812-0.796
	c-0.635,0.493-0.308,1.054-0.319,1.539c-0.014,0.615,0.049,1.232,0.039,1.847c-0.009,0.526-0.074,1.05-0.123,1.704
	c-1.291,0.215-2.512,0.099-3.722,0.119c-1.155,0.019-2.311,0.007-3.466,0.003c-1.22-0.004-2.44-0.013-3.79-0.021
	c-0.07-0.738-0.174-1.327-0.176-1.917c-0.014-4.237-0.008-8.473-0.008-12.71c0-12.633,0-25.266,0-37.899
	c0-0.616,0.015-1.233-0.007-1.849c-0.07-1.957-0.568-2.471-2.464-2.541c-0.692-0.025-1.387,0.006-2.079-0.018
	c-0.367-0.013-0.732-0.088-1.059-0.131c-0.39-1.903-0.406-7.693-0.027-9.836c0.476-0.052,0.992-0.153,1.507-0.156
	c3.235-0.014,6.471,0.035,9.706-0.014c4.187-0.063,6.402,2.239,6.377,6.429c-0.031,5.238-0.04,10.476-0.058,15.713
	C452.307,44.477,452.308,45.005,452.308,46.112z M476.179,64.385c-0.029-0.466-0.049-1.47-0.165-2.462
	c-0.308-2.639-1.129-5.098-2.663-7.297c-2.915-4.179-7.54-5.736-12.644-4.269c-3.999,1.149-6.509,3.983-7.768,7.891
	c-0.932,2.891-1.184,5.886-0.87,8.905c0.315,3.033,1.251,5.86,3.058,8.361c1.348,1.865,3.048,3.28,5.276,3.92
	c4.426,1.271,8.376,0.443,11.7-2.854c1.389-1.378,2.367-3.015,3.043-4.85C475.96,69.527,476.177,67.242,476.179,64.385z"/>
<path fill="#15284B" d="M198.395,71.679c0,0.4,0.044,0.704-0.007,0.991c-0.564,3.204-0.053,6.282,1.06,9.293
	c0.133,0.36,0.285,0.72,0.36,1.094c0.097,0.482-0.041,0.932-0.448,1.231c-0.433,0.317-0.889,0.608-1.355,0.873
	c-6.112,3.473-12.709,4.999-19.708,4.849c-4.583-0.098-9.064-0.829-13.254-2.747c-10.292-4.711-16.655-12.701-19.162-23.681
	c-1.553-6.804-1.303-13.606,0.842-20.299c3.121-9.736,12.42-19.725,25.27-21.949c8.308-1.438,16.245-0.173,23.938,3.046
	c2.155,0.902,4.014,2.272,5.596,4.003c1.844,2.017,2.819,4.397,2.882,7.119c0.05,2.156,0.013,4.313,0.002,6.47
	c-0.002,0.294-0.081,0.587-0.12,0.843c-1.855,0.402-8.886,0.424-10.855,0.05c-0.353-0.874-0.241-1.81-0.202-2.715
	c0.113-2.634-1.151-4.404-3.397-5.551c-0.955-0.488-1.961-0.895-2.978-1.235c-4.033-1.348-8.184-1.641-12.311-0.741
	c-8.156,1.778-13.523,6.733-15.837,14.782c-1.368,4.756-1.339,9.586-0.052,14.378c1.432,5.331,4.451,9.607,8.843,12.899
	c4.057,3.041,8.694,4.157,13.708,3.862c5.457-0.321,10.348-2.191,14.765-5.379C196.707,72.634,197.384,71.986,198.395,71.679z"/>
<path fill="#15284B" d="M350.583,78.956c0.018,3.375,0.056,6.508-0.031,9.778c-0.583,0.064-1.02,0.153-1.458,0.154
	c-3.082,0.012-6.164,0.035-9.245-0.012c-0.911-0.014-1.843-0.151-2.723-0.39c-1.798-0.49-2.87-1.737-3.234-3.552
	c-0.164-0.817-0.216-1.658-0.353-2.77c-0.519,0.61-0.917,1.023-1.253,1.482c-2.284,3.121-5.319,5.121-9.091,5.899
	c-5.543,1.143-10.707,0.323-15.322-3.167c-6.143-4.645-6.295-13.085-3.776-17.746c1.089-2.014,2.639-3.565,4.586-4.771
	c4.134-2.562,8.609-4.032,13.444-4.536c2.992-0.312,5.98-0.556,8.987-0.57c0.447-0.002,0.894-0.097,1.303-0.145
	c0.567-2.571-0.076-5.565-1.505-7.275c-0.873-1.044-2.007-1.69-3.291-2.035c-2.585-0.694-5.179-0.702-7.744,0.124
	c-1.965,0.632-2.422,1.262-2.523,3.326c-0.022,0.459-0.066,0.917-0.109,1.375c-0.006,0.069-0.063,0.132-0.096,0.198
	c-1.616,0.356-8.092,0.414-10.672,0.073c-0.059-0.391-0.171-0.824-0.18-1.26c-0.025-1.232-0.01-2.465-0.008-3.698
	c0.003-2.847,1.255-5.051,3.566-6.628c0.879-0.6,1.866-1.111,2.876-1.439c4.064-1.317,8.252-1.903,12.521-1.729
	c2.615,0.106,5.215,0.383,7.744,1.166c6.262,1.938,10.013,6.12,11.185,12.546c0.329,1.807,0.459,3.669,0.481,5.508
	c0.063,5.315,0.023,10.631,0.026,15.947c0,0.616-0.025,1.235,0.022,1.848c0.116,1.514,0.667,2.065,2.148,2.151
	c0.691,0.04,1.387,0.002,2.079,0.021C349.389,78.844,349.837,78.897,350.583,78.956z M332.82,67.166
	c-0.256-0.107-0.463-0.266-0.672-0.269c-3.851-0.054-7.7,0.018-11.418,1.161c-1.231,0.379-2.419,0.974-3.538,1.623
	c-1.084,0.629-1.809,1.635-2.231,2.846c-1.197,3.434,0.866,7.155,4.576,7.945c3.247,0.691,6.276,0.123,8.804-2.217
	c2.023-1.873,3.454-4.138,4.151-6.798C332.856,70.075,333.247,68.637,332.82,67.166z"/>
<path fill="#15284B" d="M207.942,54.608c-0.22-2.48-0.319-4.697,0.041-6.895c0.255-1.556,1.069-2.871,2.218-3.969
	c1.193-1.14,2.585-1.941,4.153-2.42c6.001-1.832,12.085-2.247,18.254-0.986c0.752,0.154,1.503,0.338,2.233,0.576
	c5.947,1.935,9.519,5.998,10.823,12.098c0.405,1.896,0.527,3.81,0.526,5.74c-0.003,5.47-0.002,10.939,0.005,16.409
	c0.001,0.692-0.013,1.394,0.093,2.073c0.149,0.948,0.75,1.496,1.735,1.545c1.224,0.062,2.454,0.015,3.64,0.015
	c0.179,0.342,0.37,0.538,0.371,0.735c0.019,2.995,0.013,5.991,0.013,9.11c-0.485,0.092-0.913,0.241-1.342,0.243
	c-3.158,0.02-6.317,0.013-9.475,0.007c-0.462-0.001-0.928-0.01-1.383-0.074c-2.719-0.383-4.265-1.958-4.609-4.682
	c-0.072-0.569-0.113-1.143-0.208-2.131c-0.515,0.684-0.787,1.028-1.041,1.384c-3.203,4.495-7.694,6.482-13.082,6.627
	c-4.209,0.113-8.046-1.008-11.456-3.572c-6.241-4.693-6.336-13.13-3.892-17.724c1.076-2.023,2.604-3.597,4.547-4.807
	c4.125-2.569,8.594-4.074,13.43-4.574c3.067-0.317,6.132-0.592,9.217-0.582c0.374,0.001,0.749-0.062,1.259-0.107
	c0.077-0.498,0.237-0.938,0.193-1.356c-0.118-1.143-0.232-2.3-0.51-3.411c-0.592-2.364-2.142-3.882-4.472-4.546
	c-2.657-0.757-5.327-0.742-7.961,0.131c-1.844,0.611-2.303,1.256-2.401,3.183c-0.027,0.535-0.059,1.069-0.094,1.691
	c-1.753,0.512-3.519,0.203-5.256,0.256C211.746,54.65,209.977,54.608,207.942,54.608z M234.315,67.145
	c-0.328-0.132-0.466-0.234-0.608-0.238c-3.546-0.117-7.072,0.073-10.54,0.857c-1.499,0.339-2.95,0.86-4.246,1.732
	c-1.114,0.749-1.973,1.693-2.436,2.978c-1.205,3.344,0.686,6.993,4.287,7.915c3.042,0.779,5.984,0.399,8.5-1.659
	c2.585-2.114,4.255-4.829,4.916-8.117C234.412,69.496,234.709,68.36,234.315,67.145z"/>
<path fill="#15284B" d="M538.659,78.805c0.376,1.958,0.446,6.734,0.185,9.838c-0.392,0.079-0.82,0.238-1.249,0.241
	c-3.159,0.021-6.319,0.036-9.477-0.007c-0.835-0.011-1.694-0.135-2.495-0.368c-2.074-0.603-3.179-2.06-3.391-4.195
	c-0.065-0.651-0.078-1.307-0.138-2.365c-0.541,0.655-0.835,0.972-1.086,1.322c-3.723,5.195-8.914,7.055-15.104,6.685
	c-3.566-0.214-6.764-1.389-9.586-3.579c-3.916-3.041-5.462-7.158-5.265-11.98c0.197-4.837,2.427-8.46,6.663-10.906
	c4.004-2.313,8.27-3.666,12.858-4.166c3.069-0.334,6.136-0.551,9.22-0.57c0.371-0.002,0.742-0.08,1.235-0.136
	c0.07-0.514,0.228-0.963,0.17-1.381c-0.168-1.216-0.334-2.445-0.663-3.624c-0.604-2.168-2.074-3.568-4.216-4.221
	c-2.73-0.832-5.456-0.767-8.185,0.08c-1.515,0.471-2.339,1.389-2.335,3.014c0.002,0.605-0.092,1.21-0.14,1.781
	c-1.616,0.412-7.797,0.502-10.715,0.167c-0.08-0.41-0.225-0.847-0.24-1.29c-0.037-1.077-0.014-2.157-0.014-3.236
	c0.001-4.13,2.085-6.868,5.843-8.263c2.006-0.744,4.132-1.262,6.249-1.591c4.289-0.667,8.599-0.641,12.864,0.307
	c0.973,0.216,1.937,0.503,2.877,0.839c5.187,1.855,8.422,5.509,9.826,10.804c0.616,2.321,0.827,4.701,0.832,7.096
	c0.011,5.317,0.004,10.633,0.007,15.95c0,0.616-0.021,1.236,0.032,1.848c0.111,1.275,0.621,1.821,1.875,1.892
	C536.241,78.855,537.392,78.805,538.659,78.805z M521.181,66.904c-4.68-0.062-9.195-0.041-13.493,1.666
	c-1.045,0.415-2.018,1.104-2.897,1.823c-0.976,0.798-1.469,1.929-1.634,3.206c-0.461,3.569,1.824,6.31,5.001,6.917
	c3.452,0.66,6.567-0.103,9.085-2.699c1.969-2.03,3.31-4.413,3.902-7.191C521.385,69.497,521.493,68.356,521.181,66.904z"/>
<path fill="#15284B" d="M297.521,40.885c0.447,1.301,0.255,2.538,0.249,3.748c-0.015,2.918,0.395,2.083-1.624,4.554
	c-6.333,7.752-12.677,15.496-19.037,23.227c-1.271,1.545-2.631,3.017-3.948,4.524c-0.445,0.509-0.885,1.022-1.323,1.527
	c0.177,0.173,0.278,0.36,0.379,0.359c4.387-0.011,8.775-0.039,13.163-0.064c3.035-0.017,3.245-0.224,3.365-3.276
	c0.015-0.372,0.068-0.743,0.1-1.081c1.685-0.403,7.891-0.474,10.489-0.127c0.07,0.406,0.207,0.844,0.211,1.283
	c0.02,2.31,0.031,4.621-0.007,6.931c-0.014,0.843-0.099,1.698-0.276,2.521c-0.388,1.798-1.436,3.079-3.273,3.499
	c-1.038,0.237-2.124,0.365-3.189,0.37c-6.777,0.032-13.554,0.017-20.331,0.017c-4.698,0-9.395,0.004-14.093-0.004
	c-0.754-0.001-1.508-0.057-2.361-0.091c-0.283-1.068-0.164-2.063-0.174-3.042c-0.01-1-0.08-2.019,0.087-2.993
	c0.095-0.551,0.57-1.065,0.951-1.533c2.769-3.406,5.557-6.796,8.339-10.19c4.1-5.003,8.189-10.015,12.307-15.003
	c1.126-1.364,2.332-2.662,3.515-3.978c0.25-0.278,0.487-0.542,0.756-1.07c-0.49-0.062-0.763-0.128-1.036-0.127
	c-3.619,0.012-7.239,0.028-10.858,0.056c-2.69,0.021-2.968,0.31-3.072,3.078c-0.014,0.384-0.049,0.767-0.088,1.149
	c-0.007,0.066-0.081,0.124-0.124,0.186c-1.536,0.417-7.425,0.515-10.397,0.156c-0.077-0.394-0.23-0.825-0.234-1.257
	c-0.024-2.387-0.029-4.775,0.001-7.162c0.009-0.687,0.103-1.383,0.247-2.056c0.547-2.562,1.964-3.849,4.568-4.151
	c0.686-0.08,1.384-0.075,2.076-0.076c10.858-0.005,21.717-0.006,32.575,0C296.131,40.789,296.81,40.85,297.521,40.885z"/>
<path fill="#15284B" d="M254.024,108.297c-0.013,1.795-1.471,3.245-3.206,3.189c-1.641-0.053-3.015-1.462-3.061-3.14
	c-0.049-1.781,1.362-3.255,3.127-3.267C252.686,105.068,254.037,106.453,254.024,108.297z"/>
<path fill="#15284B" d="M390.607,111.488c-1.744-0.052-3.077-1.539-3.015-3.365c0.062-1.832,1.47-3.131,3.296-3.039
	c1.682,0.085,2.912,1.443,2.903,3.205C393.78,110.101,392.347,111.54,390.607,111.488z"/>
<g>
	<path fill="#15284B" d="M263.492,100.647h8.552v2.903h-2.819v12.569h-2.987v-12.569h-2.746V100.647z"/>
	<path fill="#15284B" d="M285.105,111.229h-9.225c0.134,0.813,0.489,1.46,1.068,1.94c0.578,0.48,1.316,0.721,2.214,0.721
		c1.072,0,1.995-0.375,2.767-1.126l2.419,1.136c-0.604,0.856-1.325,1.488-2.167,1.898c-0.842,0.411-1.841,0.616-2.998,0.616
		c-1.795,0-3.257-0.566-4.386-1.699c-1.129-1.132-1.693-2.551-1.693-4.255c0-1.745,0.562-3.195,1.689-4.349
		c1.125-1.153,2.536-1.73,4.233-1.73c1.802,0,3.267,0.577,4.396,1.73c1.129,1.153,1.693,2.677,1.693,4.57L285.105,111.229z
		 M282.234,108.968c-0.19-0.638-0.564-1.157-1.122-1.557c-0.559-0.399-1.206-0.6-1.944-0.6c-0.801,0-1.503,0.225-2.107,0.673
		c-0.38,0.281-0.73,0.775-1.054,1.483H282.234z"/>
	<path fill="#15284B" d="M298.524,106.99l-2.391,1.315c-0.449-0.47-0.894-0.795-1.332-0.978c-0.439-0.183-0.953-0.273-1.543-0.273
		c-1.074,0-1.942,0.32-2.607,0.961c-0.663,0.641-0.995,1.461-0.995,2.462c0,0.974,0.319,1.769,0.959,2.385
		c0.639,0.616,1.478,0.924,2.517,0.924c1.285,0,2.285-0.438,3.001-1.314l2.265,1.55c-1.227,1.597-2.959,2.395-5.196,2.395
		c-2.013,0-3.589-0.597-4.728-1.788c-1.14-1.192-1.71-2.588-1.71-4.187c0-1.108,0.277-2.128,0.831-3.061
		c0.555-0.933,1.327-1.666,2.319-2.198c0.992-0.533,2.103-0.8,3.329-0.8c1.136,0,2.156,0.227,3.061,0.679
		C297.21,105.513,297.949,106.156,298.524,106.99z"/>
	<path fill="#15284B" d="M301.004,104.677h2.872v1.173c0.65-0.55,1.24-0.932,1.769-1.146c0.528-0.215,1.069-0.322,1.623-0.322
		c1.134,0,2.097,0.396,2.888,1.188c0.665,0.673,0.998,1.669,0.998,2.987v7.562h-2.84v-5.012c0-1.365-0.062-2.272-0.184-2.721
		c-0.123-0.448-0.336-0.79-0.641-1.024c-0.304-0.234-0.68-0.352-1.128-0.352c-0.58,0-1.079,0.194-1.495,0.583
		c-0.416,0.389-0.705,0.926-0.865,1.612c-0.084,0.357-0.126,1.132-0.126,2.322v4.591h-2.872V104.677z"/>
	<path fill="#15284B" d="M319.197,104.382c1.08,0,2.095,0.271,3.045,0.81c0.95,0.54,1.691,1.273,2.225,2.198
		c0.533,0.926,0.8,1.925,0.8,2.998c0,1.08-0.269,2.09-0.805,3.029c-0.537,0.939-1.268,1.674-2.193,2.203
		c-0.926,0.529-1.945,0.795-3.061,0.795c-1.641,0-3.042-0.584-4.202-1.752c-1.16-1.167-1.741-2.585-1.741-4.254
		c0-1.788,0.656-3.278,1.968-4.471C316.382,104.9,317.704,104.382,319.197,104.382z M319.245,107.085
		c-0.893,0-1.636,0.311-2.228,0.931c-0.594,0.621-0.891,1.415-0.891,2.383c0,0.995,0.293,1.802,0.88,2.419
		c0.586,0.617,1.329,0.926,2.229,0.926c0.898,0,1.646-0.312,2.244-0.937c0.597-0.624,0.896-1.427,0.896-2.408
		c0-0.981-0.294-1.779-0.88-2.394C320.907,107.392,320.158,107.085,319.245,107.085z"/>
	<path fill="#15284B" d="M327.188,100.259h2.872v15.861h-2.872V100.259z"/>
	<path fill="#15284B" d="M337.935,104.382c1.08,0,2.095,0.271,3.045,0.81c0.95,0.54,1.691,1.273,2.225,2.198
		c0.533,0.926,0.8,1.925,0.8,2.998c0,1.08-0.269,2.09-0.805,3.029c-0.537,0.939-1.268,1.674-2.193,2.203
		c-0.926,0.529-1.945,0.795-3.061,0.795c-1.641,0-3.042-0.584-4.202-1.752c-1.16-1.167-1.741-2.585-1.741-4.254
		c0-1.788,0.656-3.278,1.968-4.471C335.12,104.9,336.442,104.382,337.935,104.382z M337.983,107.085
		c-0.893,0-1.636,0.311-2.229,0.931c-0.594,0.621-0.891,1.415-0.891,2.383c0,0.995,0.293,1.802,0.88,2.419
		c0.586,0.617,1.329,0.926,2.229,0.926c0.898,0,1.646-0.312,2.244-0.937c0.597-0.624,0.896-1.427,0.896-2.408
		c0-0.981-0.294-1.779-0.88-2.394C339.645,107.392,338.896,107.085,337.983,107.085z"/>
	<path fill="#15284B" d="M354.699,104.677h2.86v9.803c0,1.936-0.389,3.358-1.167,4.271c-1.045,1.233-2.619,1.851-4.723,1.851
		c-1.122,0-2.065-0.14-2.829-0.421c-0.765-0.28-1.41-0.692-1.935-1.235c-0.526-0.544-0.915-1.204-1.168-1.982h3.166
		c0.28,0.322,0.642,0.565,1.084,0.73c0.441,0.165,0.964,0.247,1.566,0.247c0.772,0,1.393-0.119,1.862-0.357
		c0.47-0.238,0.801-0.547,0.994-0.926c0.192-0.378,0.289-1.03,0.289-1.956c-0.505,0.505-1.034,0.868-1.588,1.089
		c-0.555,0.221-1.182,0.331-1.883,0.331c-1.536,0-2.833-0.554-3.893-1.662c-1.059-1.107-1.588-2.51-1.588-4.207
		c0-1.816,0.561-3.274,1.683-4.376c1.017-0.995,2.23-1.493,3.64-1.493c0.659,0,1.281,0.121,1.867,0.363
		c0.585,0.241,1.173,0.64,1.762,1.193V104.677z M351.723,107.064c-0.904,0-1.651,0.303-2.24,0.909
		c-0.589,0.606-0.884,1.369-0.884,2.288c0,0.953,0.302,1.735,0.904,2.346c0.603,0.609,1.36,0.915,2.272,0.915
		c0.89,0,1.625-0.298,2.203-0.895c0.578-0.596,0.868-1.378,0.868-2.346c0-0.953-0.291-1.729-0.873-2.324
		C353.392,107.362,352.641,107.064,351.723,107.064z"/>
	<path fill="#15284B" d="M361.476,99.964c0.504,0,0.936,0.183,1.296,0.547c0.359,0.365,0.54,0.807,0.54,1.326
		c0,0.512-0.179,0.948-0.535,1.309c-0.357,0.361-0.783,0.542-1.279,0.542c-0.511,0-0.946-0.184-1.306-0.552
		c-0.36-0.368-0.54-0.815-0.54-1.342c0-0.505,0.178-0.936,0.534-1.293C360.543,100.143,360.973,99.964,361.476,99.964z
		 M360.04,104.677h2.872v11.443h-2.872V104.677z"/>
	<path fill="#15284B" d="M373.858,104.677h2.871v11.443h-2.871v-1.21c-0.561,0.533-1.122,0.917-1.687,1.152
		c-0.563,0.234-1.175,0.353-1.833,0.353c-1.478,0-2.756-0.573-3.835-1.72c-1.078-1.146-1.617-2.572-1.617-4.276
		c0-1.767,0.522-3.215,1.565-4.344c1.043-1.129,2.311-1.693,3.803-1.693c0.686,0,1.331,0.13,1.933,0.39
		c0.603,0.259,1.159,0.648,1.671,1.167V104.677z M370.84,107.032c-0.888,0-1.625,0.314-2.212,0.941
		c-0.587,0.628-0.881,1.433-0.881,2.414c0,0.988,0.299,1.803,0.896,2.44c0.598,0.638,1.333,0.957,2.207,0.957
		c0.901,0,1.649-0.313,2.243-0.942c0.594-0.628,0.891-1.45,0.891-2.467c0-0.995-0.297-1.802-0.891-2.419
		C372.5,107.341,371.748,107.032,370.84,107.032z"/>
</g>
<g>
	<path fill="#15284B" d="M404.773,100.558h2.924v15.473h-2.924V100.558z"/>
	<path fill="#15284B" d="M410.587,104.587h2.872v1.173c0.65-0.55,1.24-0.932,1.769-1.146c0.528-0.215,1.069-0.322,1.623-0.322
		c1.134,0,2.097,0.396,2.888,1.188c0.665,0.673,0.998,1.669,0.998,2.987v7.562h-2.84v-5.012c0-1.365-0.062-2.272-0.184-2.721
		c-0.123-0.448-0.336-0.79-0.641-1.024c-0.304-0.234-0.68-0.352-1.128-0.352c-0.58,0-1.079,0.194-1.495,0.583
		c-0.416,0.389-0.705,0.926-0.865,1.612c-0.084,0.357-0.126,1.132-0.126,2.322v4.591h-2.872V104.587z"/>
	<path fill="#15284B" d="M428.781,104.292c1.08,0,2.095,0.271,3.045,0.81c0.95,0.54,1.691,1.273,2.225,2.198
		c0.533,0.926,0.8,1.925,0.8,2.998c0,1.08-0.269,2.09-0.805,3.029c-0.537,0.939-1.268,1.674-2.193,2.203
		c-0.926,0.529-1.945,0.795-3.06,0.795c-1.641,0-3.042-0.584-4.202-1.752c-1.16-1.167-1.741-2.585-1.741-4.254
		c0-1.788,0.656-3.278,1.968-4.471C425.966,104.811,427.288,104.292,428.781,104.292z M428.829,106.995
		c-0.893,0-1.636,0.311-2.229,0.931c-0.594,0.621-0.891,1.415-0.891,2.383c0,0.995,0.293,1.802,0.88,2.419
		c0.586,0.617,1.329,0.926,2.229,0.926c0.898,0,1.646-0.312,2.244-0.937c0.597-0.624,0.896-1.427,0.896-2.408
		c0-0.981-0.294-1.779-0.88-2.394C430.491,107.302,429.742,106.995,428.829,106.995z"/>
	<path fill="#15284B" d="M435.863,104.587h2.925l2.892,6.752l2.885-6.752h2.91l-4.869,11.443h-1.862L435.863,104.587z"/>
	<path fill="#15284B" d="M457.491,104.587h2.871v11.443h-2.871v-1.21c-0.56,0.533-1.122,0.917-1.686,1.152
		c-0.564,0.234-1.175,0.353-1.833,0.353c-1.478,0-2.756-0.573-3.835-1.72c-1.078-1.146-1.617-2.572-1.617-4.276
		c0-1.767,0.521-3.215,1.565-4.344c1.043-1.129,2.31-1.693,3.803-1.693c0.686,0,1.331,0.13,1.933,0.39
		c0.603,0.259,1.159,0.648,1.671,1.167V104.587z M454.473,106.942c-0.888,0-1.625,0.314-2.212,0.941
		c-0.587,0.628-0.881,1.433-0.881,2.414c0,0.988,0.299,1.803,0.897,2.44c0.598,0.638,1.333,0.957,2.207,0.957
		c0.901,0,1.649-0.313,2.243-0.941c0.594-0.628,0.891-1.45,0.891-2.467c0-0.995-0.297-1.802-0.891-2.419
		C456.133,107.251,455.381,106.942,454.473,106.942z"/>
	<path fill="#15284B" d="M474.359,106.9l-2.391,1.314c-0.449-0.47-0.894-0.795-1.332-0.978c-0.439-0.183-0.953-0.273-1.543-0.273
		c-1.074,0-1.942,0.32-2.607,0.961c-0.663,0.641-0.995,1.461-0.995,2.462c0,0.974,0.319,1.769,0.959,2.385
		c0.639,0.616,1.477,0.924,2.517,0.924c1.285,0,2.285-0.438,3.001-1.314l2.265,1.55c-1.228,1.597-2.959,2.395-5.196,2.395
		c-2.013,0-3.589-0.597-4.727-1.788c-1.14-1.192-1.71-2.588-1.71-4.187c0-1.108,0.277-2.128,0.831-3.061
		c0.555-0.933,1.327-1.666,2.319-2.198c0.992-0.533,2.102-0.8,3.329-0.8c1.136,0,2.156,0.227,3.06,0.679
		C473.045,105.423,473.784,106.066,474.359,106.9z M467.733,115.862h1.777l-0.126,0.483c0.469,0.104,0.839,0.31,1.109,0.613
		c0.27,0.305,0.404,0.639,0.404,1.002c0,0.566-0.238,1.052-0.715,1.458c-0.477,0.405-1.14,0.608-1.988,0.608
		c-0.686,0-1.465-0.161-2.335-0.484l0.379-1.356c0.505,0.161,0.999,0.242,1.483,0.242c0.357,0,0.624-0.068,0.799-0.205
		c0.176-0.137,0.264-0.317,0.264-0.542c0-0.182-0.067-0.326-0.2-0.431c-0.134-0.105-0.344-0.158-0.631-0.158l-0.589,0.021
		L467.733,115.862z"/>
	<path fill="#15284B" d="M485.285,104.587h2.871v11.443h-2.871v-1.21c-0.561,0.533-1.122,0.917-1.687,1.152
		c-0.563,0.234-1.175,0.353-1.833,0.353c-1.478,0-2.756-0.573-3.835-1.72c-1.078-1.146-1.617-2.572-1.617-4.276
		c0-1.767,0.522-3.215,1.565-4.344c1.043-1.129,2.311-1.693,3.803-1.693c0.687,0,1.331,0.13,1.933,0.39
		c0.603,0.259,1.159,0.648,1.671,1.167V104.587z M479.301,102.451l-1.157-1.733c0.897-0.689,1.806-1.033,2.724-1.033
		c0.344,0,0.933,0.117,1.768,0.351c0.568,0.151,1.02,0.228,1.356,0.228c0.589,0,1.199-0.179,1.83-0.536l1.095,1.637
		c-0.884,0.753-1.739,1.129-2.566,1.129c-0.442,0-0.972-0.093-1.589-0.278c-0.505-0.145-0.824-0.231-0.957-0.259
		c-0.183-0.027-0.399-0.041-0.652-0.041C480.534,101.915,479.917,102.094,479.301,102.451z M482.267,106.942
		c-0.888,0-1.625,0.314-2.212,0.941c-0.587,0.628-0.881,1.433-0.881,2.414c0,0.988,0.299,1.803,0.896,2.44
		c0.598,0.638,1.333,0.957,2.207,0.957c0.901,0,1.65-0.313,2.243-0.941c0.594-0.628,0.891-1.45,0.891-2.467
		c0-0.995-0.297-1.802-0.891-2.419C483.927,107.251,483.175,106.942,482.267,106.942z"/>
	<path fill="#15284B" d="M496.327,104.292c1.08,0,2.095,0.271,3.045,0.81c0.95,0.54,1.691,1.273,2.225,2.198
		c0.533,0.926,0.8,1.925,0.8,2.998c0,1.08-0.269,2.09-0.805,3.029c-0.537,0.939-1.268,1.674-2.193,2.203
		c-0.926,0.529-1.945,0.795-3.06,0.795c-1.641,0-3.042-0.584-4.202-1.752c-1.16-1.167-1.741-2.585-1.741-4.254
		c0-1.788,0.656-3.278,1.968-4.471C493.512,104.811,494.834,104.292,496.327,104.292z M496.375,106.995
		c-0.893,0-1.636,0.311-2.229,0.931c-0.594,0.621-0.891,1.415-0.891,2.383c0,0.995,0.293,1.802,0.88,2.419
		c0.586,0.617,1.329,0.926,2.229,0.926c0.898,0,1.646-0.312,2.244-0.937c0.597-0.624,0.895-1.427,0.895-2.408
		c0-0.981-0.294-1.779-0.88-2.394C498.037,107.302,497.288,106.995,496.375,106.995z"/>
</g>
<g>
	<path fill="#F38B00" d="M108.201,85.632c2.955,2.13,5.817,4.193,8.817,6.356c-6.111,7.133-13.1,12.921-21.394,17.066
		c-12.042,6.019-24.771,8.291-38.126,6.573c-27.946-3.596-48.51-23.778-55.103-47.608C-4.816,41.953,5.21,16.728,19.714,3.701
		c1.335,0.948,5.673,5.194,7.443,7.297c-1.175,1.374-2.378,2.75-3.547,4.153c-5.467,6.561-9.234,13.984-11.198,22.301
		c-7.267,30.776,12.174,59.831,40.852,66.317c17.623,3.985,33.607,0.167,47.712-11.173c1.913-1.538,3.567-3.397,5.338-5.11
		C106.915,86.904,107.507,86.313,108.201,85.632z"/>
	
		<rect x="48.672" y="45.307" transform="matrix(0.7084 -0.7058 0.7058 0.7084 -7.021 84.6409)" fill="#F38B00" width="100.504" height="11.021"/>
	
		<rect x="47.961" y="32.314" transform="matrix(0.7084 -0.7058 0.7058 0.7084 -1.0373 70.6502)" fill="#F38B00" width="74.045" height="8.533"/>
	
		<rect x="47.135" y="20.953" transform="matrix(0.7084 -0.7058 0.7058 0.7084 4.0436 58.1748)" fill="#F38B00" width="50.582" height="6.482"/>
	
		<rect x="51.916" y="9.838" transform="matrix(0.7084 -0.7058 0.7058 0.7084 8.9009 46.3926)" fill="#F38B00" width="17.359" height="5.172"/>
</g>
<g>
	<path fill="#15284B" d="M175.421,100.827h2.891l3.614,10.872l3.646-10.872h2.889l2.615,15.588h-2.869l-1.671-9.845l-3.312,9.845
		h-2.615l-3.282-9.845l-1.712,9.845h-2.893L175.421,100.827z"/>
	<path fill="#15284B" d="M204.454,111.487h-9.294c0.134,0.82,0.493,1.472,1.076,1.955c0.583,0.484,1.326,0.727,2.23,0.727
		c1.081,0,2.01-0.378,2.787-1.134l2.438,1.144c-0.608,0.862-1.335,1.5-2.183,1.913c-0.848,0.413-1.855,0.62-3.02,0.62
		c-1.809,0-3.282-0.57-4.419-1.712c-1.137-1.141-1.706-2.569-1.706-4.286c0-1.759,0.567-3.22,1.701-4.382s2.556-1.743,4.265-1.743
		c1.816,0,3.292,0.581,4.43,1.743c1.137,1.162,1.706,2.697,1.706,4.604L204.454,111.487z M201.561,109.209
		c-0.191-0.643-0.568-1.165-1.13-1.568c-0.562-0.402-1.215-0.604-1.958-0.604c-0.807,0-1.514,0.226-2.123,0.678
		c-0.382,0.283-0.736,0.781-1.061,1.494H201.561z"/>
	<path fill="#15284B" d="M215.088,100.436h2.893v15.979h-2.893v-1.219c-0.565,0.537-1.131,0.924-1.699,1.16
		c-0.568,0.237-1.184,0.355-1.847,0.355c-1.489,0-2.777-0.578-3.863-1.732c-1.087-1.155-1.63-2.591-1.63-4.308
		c0-1.78,0.525-3.239,1.577-4.377c1.051-1.137,2.328-1.706,3.831-1.706c0.691,0,1.34,0.131,1.947,0.393
		c0.607,0.261,1.168,0.653,1.683,1.176V100.436z M212.047,107.26c-0.895,0-1.637,0.316-2.229,0.948
		c-0.592,0.632-0.887,1.442-0.887,2.432c0,0.996,0.301,1.815,0.903,2.459c0.602,0.643,1.343,0.964,2.223,0.964
		c0.908,0,1.662-0.316,2.26-0.948c0.598-0.632,0.897-1.461,0.897-2.485c0-1.003-0.299-1.815-0.897-2.437
		C213.719,107.57,212.962,107.26,212.047,107.26z"/>
	<path fill="#15284B" d="M221.817,100.139c0.507,0,0.942,0.184,1.305,0.551c0.363,0.367,0.544,0.812,0.544,1.335
		c0,0.516-0.18,0.956-0.539,1.319c-0.359,0.364-0.788,0.546-1.288,0.546c-0.515,0-0.953-0.186-1.316-0.557
		c-0.363-0.37-0.544-0.821-0.544-1.351c0-0.509,0.179-0.943,0.539-1.304C220.877,100.318,221.31,100.139,221.817,100.139z
		 M220.371,104.886h2.893v11.529h-2.893V104.886z"/>
	<path fill="#15284B" d="M234.184,104.886h2.893v11.529h-2.893v-1.219c-0.565,0.537-1.131,0.924-1.699,1.16
		c-0.568,0.237-1.184,0.355-1.847,0.355c-1.489,0-2.777-0.578-3.863-1.732c-1.087-1.155-1.63-2.591-1.63-4.308
		c0-1.78,0.525-3.239,1.577-4.377c1.051-1.137,2.328-1.706,3.831-1.706c0.691,0,1.34,0.131,1.947,0.393
		c0.607,0.261,1.167,0.653,1.683,1.176V104.886z M231.143,107.26c-0.895,0-1.637,0.316-2.229,0.948
		c-0.592,0.632-0.887,1.442-0.887,2.432c0,0.996,0.301,1.815,0.903,2.459c0.602,0.643,1.343,0.964,2.223,0.964
		c0.908,0,1.662-0.316,2.26-0.948c0.598-0.632,0.897-1.461,0.897-2.485c0-1.003-0.299-1.815-0.897-2.437
		C232.815,107.57,232.058,107.26,231.143,107.26z"/>
</g>
<path fill="#FFFFFF" d="M396.328,229.91c0.489-0.664,0.797-1.075,1.098-1.492c4.382-6.066,10.265-8.872,17.755-8.14
	c1.068,0.104,2.139,0.287,3.177,0.554c4.175,1.076,7.013,3.691,8.652,7.654c1.259,3.044,1.653,6.252,1.683,9.5
	c0.055,5.857,0.018,11.715,0.021,17.572c0,0.617-0.022,1.236,0.03,1.849c0.107,1.263,0.634,1.794,1.879,1.897
	c0.613,0.051,1.232,0.015,1.849,0.032c0.529,0.015,1.057,0.051,1.641,0.08c0.545,1.074,0.252,2.167,0.302,3.212
	c0.051,1.077,0.012,2.157,0.012,3.236c0,1.069,0,2.139,0,3.31c-0.579,0.091-1.014,0.217-1.449,0.219
	c-3.391,0.015-6.782,0.019-10.173-0.005c-0.688-0.005-1.385-0.09-2.06-0.228c-2.229-0.459-3.471-1.902-3.823-4.097
	c-0.146-0.906-0.139-1.843-0.14-2.766c-0.011-7.014,0.021-14.027-0.028-21.041c-0.012-1.687-0.143-3.396-0.449-5.052
	c-0.687-3.707-2.703-5.263-6.468-5.179c-2.575,0.057-4.798,1.005-6.689,2.739c-2.161,1.981-3.553,4.433-4.365,7.228
	c-0.669,2.305-1.041,4.648-1.029,7.063c0.031,6.165,0.01,12.331,0.004,18.497c-0.001,0.836-0.038,1.673-0.057,2.472
	c-1.591,0.464-8.209,0.577-11.613,0.221c-0.481-0.738-0.256-1.609-0.258-2.424c-0.02-8.478,0.009-16.956-0.032-25.434
	c-0.008-1.687-0.237-3.374-0.4-5.058c-0.044-0.454-0.191-0.903-0.332-1.341c-0.841-2.618-2.295-3.766-5.058-3.945
	c-3.179-0.206-5.912,0.808-8.153,3.091c-2.458,2.505-3.778,5.59-4.51,8.96c-0.393,1.812-0.559,3.648-0.552,5.508
	c0.022,6.089,0.01,12.177,0.002,18.266c-0.001,0.754-0.059,1.508-0.096,2.376c-1.388,0.284-2.69,0.126-3.976,0.154
	c-1.232,0.027-2.467,0.028-3.699,0c-1.288-0.029-2.591,0.133-4.007-0.163c-0.034-0.916-0.091-1.747-0.092-2.577
	c-0.006-10.405-0.004-20.809-0.005-31.214c0-0.694,0.024-1.39-0.031-2.08c-0.1-1.238-0.664-1.838-1.878-1.906
	c-1.146-0.064-2.298-0.014-3.507-0.014c-0.731-1.73-0.355-3.429-0.4-5.077c-0.043-1.598-0.121-3.21,0.128-4.885
	c0.476-0.073,0.842-0.178,1.209-0.179c3.468-0.008,6.937-0.021,10.404,0.023c0.756,0.01,1.531,0.171,2.26,0.387
	c1.999,0.591,3.055,2.012,3.234,4.049c0.107,1.21,0.068,2.432,0.095,3.655c0.675-0.012,0.781-0.518,1.015-0.879
	c1.311-2.033,2.968-3.737,4.915-5.161c4.866-3.56,10.207-4.067,15.815-2.279c3.072,0.979,5.295,3.082,6.791,5.933
	C395.396,227.848,395.758,228.697,396.328,229.91z"/>
<path fill="#FFFFFF" d="M452.308,226.621c0.857-0.819,1.301-1.218,1.717-1.644c2.403-2.459,5.395-3.787,8.697-4.485
	c3.06-0.647,6.131-0.551,9.175,0.108c4.129,0.894,7.551,2.994,10.306,6.191c2.196,2.549,3.78,5.447,4.698,8.668
	c1.79,6.284,1.872,12.609,0.168,18.932c-0.625,2.321-1.594,4.503-2.931,6.501c-4.596,6.863-11.06,9.992-19.28,9.596
	c-2.82-0.136-5.454-0.885-7.933-2.225c-1.572-0.849-3.026-1.836-4.132-3.274c-0.221-0.288-0.522-0.515-0.812-0.796
	c-0.635,0.493-0.308,1.054-0.319,1.539c-0.014,0.615,0.049,1.232,0.039,1.847c-0.009,0.526-0.074,1.05-0.123,1.704
	c-1.291,0.215-2.512,0.099-3.722,0.119c-1.155,0.019-2.311,0.007-3.466,0.003c-1.22-0.004-2.44-0.013-3.79-0.021
	c-0.07-0.738-0.174-1.327-0.176-1.917c-0.014-4.237-0.008-8.473-0.008-12.71c0-12.633,0-25.266,0-37.899
	c0-0.616,0.015-1.233-0.007-1.849c-0.07-1.957-0.568-2.471-2.464-2.541c-0.692-0.025-1.387,0.006-2.079-0.018
	c-0.367-0.013-0.732-0.088-1.059-0.13c-0.39-1.904-0.406-7.693-0.027-9.836c0.476-0.052,0.992-0.153,1.507-0.156
	c3.235-0.014,6.471,0.035,9.706-0.014c4.187-0.063,6.402,2.24,6.377,6.429c-0.031,5.238-0.04,10.475-0.058,15.713
	C452.307,224.985,452.308,225.513,452.308,226.621z M476.179,244.893c-0.029-0.466-0.049-1.47-0.165-2.462
	c-0.308-2.639-1.129-5.098-2.663-7.297c-2.915-4.179-7.54-5.736-12.644-4.269c-3.999,1.149-6.509,3.982-7.768,7.891
	c-0.932,2.892-1.184,5.886-0.87,8.905c0.315,3.033,1.251,5.86,3.058,8.361c1.348,1.865,3.048,3.28,5.276,3.92
	c4.426,1.271,8.376,0.443,11.7-2.854c1.389-1.377,2.367-3.015,3.043-4.85C475.96,250.036,476.177,247.75,476.179,244.893z"/>
<path fill="#FFFFFF" d="M198.395,252.188c0,0.4,0.044,0.704-0.007,0.991c-0.564,3.204-0.053,6.282,1.06,9.293
	c0.133,0.36,0.285,0.72,0.36,1.094c0.097,0.482-0.041,0.932-0.448,1.231c-0.433,0.317-0.889,0.608-1.355,0.873
	c-6.112,3.473-12.709,4.999-19.708,4.849c-4.583-0.098-9.064-0.829-13.254-2.747c-10.292-4.711-16.655-12.701-19.162-23.681
	c-1.553-6.804-1.303-13.606,0.842-20.299c3.121-9.736,12.42-19.725,25.27-21.949c8.308-1.438,16.245-0.173,23.938,3.046
	c2.155,0.902,4.014,2.272,5.596,4.003c1.844,2.017,2.819,4.397,2.882,7.119c0.05,2.156,0.013,4.313,0.002,6.47
	c-0.002,0.294-0.081,0.587-0.12,0.843c-1.855,0.401-8.886,0.424-10.855,0.05c-0.353-0.874-0.241-1.81-0.202-2.715
	c0.113-2.634-1.151-4.404-3.397-5.551c-0.955-0.488-1.961-0.895-2.978-1.235c-4.033-1.348-8.184-1.641-12.311-0.741
	c-8.156,1.778-13.523,6.733-15.837,14.782c-1.368,4.756-1.339,9.586-0.052,14.378c1.432,5.331,4.451,9.607,8.843,12.899
	c4.057,3.041,8.694,4.157,13.708,3.862c5.457-0.321,10.348-2.191,14.765-5.379C196.707,253.143,197.384,252.495,198.395,252.188z"/>
<path fill="#FFFFFF" d="M350.583,259.465c0.018,3.375,0.056,6.508-0.031,9.778c-0.583,0.064-1.02,0.152-1.458,0.154
	c-3.082,0.012-6.164,0.035-9.245-0.012c-0.911-0.014-1.843-0.151-2.723-0.39c-1.798-0.49-2.87-1.737-3.234-3.553
	c-0.164-0.818-0.216-1.658-0.353-2.77c-0.519,0.61-0.917,1.023-1.253,1.482c-2.284,3.121-5.319,5.121-9.091,5.899
	c-5.543,1.143-10.707,0.323-15.322-3.167c-6.143-4.645-6.295-13.085-3.776-17.746c1.089-2.014,2.639-3.565,4.586-4.771
	c4.134-2.561,8.609-4.032,13.444-4.536c2.992-0.312,5.98-0.556,8.987-0.57c0.447-0.002,0.894-0.097,1.303-0.145
	c0.567-2.571-0.076-5.564-1.505-7.275c-0.873-1.044-2.007-1.69-3.291-2.035c-2.585-0.694-5.179-0.702-7.744,0.124
	c-1.965,0.632-2.422,1.262-2.523,3.326c-0.022,0.459-0.066,0.917-0.109,1.375c-0.006,0.069-0.063,0.132-0.096,0.198
	c-1.616,0.356-8.092,0.414-10.672,0.073c-0.059-0.391-0.171-0.824-0.18-1.26c-0.025-1.232-0.01-2.465-0.008-3.698
	c0.003-2.847,1.255-5.051,3.566-6.628c0.879-0.6,1.866-1.111,2.876-1.439c4.064-1.317,8.252-1.903,12.521-1.729
	c2.615,0.106,5.215,0.383,7.744,1.166c6.262,1.938,10.013,6.12,11.185,12.546c0.329,1.807,0.459,3.669,0.481,5.508
	c0.063,5.315,0.023,10.631,0.026,15.947c0,0.616-0.025,1.235,0.022,1.848c0.116,1.514,0.667,2.065,2.148,2.151
	c0.691,0.04,1.387,0.001,2.079,0.021C349.389,259.352,349.837,259.406,350.583,259.465z M332.82,247.675
	c-0.256-0.107-0.463-0.266-0.672-0.269c-3.851-0.054-7.7,0.017-11.418,1.161c-1.231,0.379-2.419,0.974-3.538,1.623
	c-1.084,0.629-1.809,1.635-2.231,2.846c-1.197,3.434,0.866,7.155,4.576,7.945c3.247,0.691,6.276,0.123,8.804-2.217
	c2.023-1.873,3.454-4.138,4.151-6.797C332.856,250.584,333.247,249.146,332.82,247.675z"/>
<path fill="#FFFFFF" d="M207.942,235.116c-0.22-2.48-0.319-4.697,0.041-6.895c0.255-1.556,1.069-2.871,2.218-3.969
	c1.193-1.14,2.585-1.941,4.153-2.42c6.001-1.832,12.085-2.247,18.254-0.986c0.752,0.154,1.503,0.338,2.233,0.576
	c5.947,1.935,9.519,5.998,10.823,12.098c0.405,1.896,0.527,3.81,0.526,5.74c-0.003,5.47-0.002,10.939,0.005,16.409
	c0.001,0.692-0.013,1.394,0.093,2.073c0.149,0.948,0.75,1.496,1.735,1.545c1.224,0.062,2.454,0.015,3.64,0.015
	c0.179,0.341,0.37,0.538,0.371,0.735c0.019,2.995,0.013,5.991,0.013,9.11c-0.485,0.092-0.913,0.241-1.342,0.243
	c-3.158,0.02-6.317,0.013-9.475,0.007c-0.462-0.001-0.928-0.01-1.383-0.074c-2.719-0.383-4.265-1.958-4.609-4.682
	c-0.072-0.569-0.113-1.143-0.208-2.131c-0.515,0.684-0.787,1.028-1.041,1.384c-3.203,4.495-7.694,6.482-13.082,6.626
	c-4.209,0.113-8.046-1.008-11.456-3.572c-6.241-4.693-6.336-13.13-3.892-17.724c1.076-2.023,2.604-3.597,4.547-4.807
	c4.125-2.569,8.594-4.074,13.43-4.574c3.067-0.317,6.132-0.592,9.217-0.582c0.374,0.001,0.749-0.062,1.259-0.107
	c0.077-0.498,0.237-0.938,0.193-1.356c-0.118-1.143-0.232-2.3-0.51-3.411c-0.592-2.364-2.142-3.882-4.472-4.546
	c-2.657-0.757-5.327-0.742-7.961,0.131c-1.844,0.611-2.303,1.256-2.401,3.183c-0.027,0.535-0.059,1.069-0.094,1.691
	c-1.753,0.512-3.519,0.203-5.256,0.256C211.746,235.158,209.977,235.116,207.942,235.116z M234.315,247.654
	c-0.328-0.132-0.466-0.234-0.608-0.238c-3.546-0.117-7.072,0.073-10.54,0.857c-1.499,0.339-2.95,0.86-4.246,1.732
	c-1.114,0.749-1.973,1.693-2.436,2.978c-1.205,3.344,0.686,6.993,4.287,7.915c3.042,0.779,5.984,0.399,8.5-1.659
	c2.585-2.114,4.255-4.829,4.916-8.117C234.412,250.005,234.709,248.868,234.315,247.654z"/>
<path fill="#FFFFFF" d="M538.659,259.313c0.376,1.958,0.446,6.734,0.185,9.838c-0.392,0.079-0.82,0.238-1.249,0.241
	c-3.159,0.021-6.319,0.036-9.477-0.007c-0.835-0.011-1.694-0.135-2.495-0.368c-2.074-0.603-3.179-2.06-3.391-4.195
	c-0.065-0.651-0.078-1.307-0.138-2.365c-0.541,0.655-0.835,0.972-1.086,1.322c-3.723,5.195-8.914,7.055-15.104,6.685
	c-3.566-0.214-6.764-1.389-9.586-3.579c-3.916-3.041-5.462-7.158-5.265-11.98c0.197-4.837,2.427-8.46,6.663-10.906
	c4.004-2.313,8.27-3.666,12.858-4.165c3.069-0.334,6.136-0.551,9.22-0.57c0.371-0.002,0.742-0.08,1.235-0.136
	c0.07-0.514,0.228-0.963,0.17-1.381c-0.168-1.216-0.334-2.445-0.663-3.624c-0.604-2.168-2.074-3.568-4.216-4.221
	c-2.73-0.832-5.456-0.768-8.185,0.08c-1.515,0.471-2.339,1.389-2.335,3.014c0.002,0.605-0.092,1.21-0.14,1.781
	c-1.616,0.412-7.797,0.502-10.715,0.166c-0.08-0.41-0.225-0.847-0.24-1.29c-0.037-1.077-0.014-2.157-0.014-3.236
	c0.001-4.13,2.085-6.868,5.843-8.263c2.006-0.744,4.132-1.262,6.249-1.591c4.289-0.667,8.599-0.641,12.864,0.307
	c0.973,0.216,1.937,0.503,2.877,0.839c5.187,1.855,8.422,5.509,9.826,10.804c0.616,2.321,0.827,4.701,0.832,7.096
	c0.011,5.317,0.004,10.633,0.007,15.95c0,0.616-0.021,1.236,0.032,1.848c0.111,1.275,0.621,1.821,1.875,1.892
	C536.241,259.364,537.392,259.313,538.659,259.313z M521.181,247.412c-4.68-0.062-9.195-0.041-13.493,1.667
	c-1.045,0.415-2.018,1.104-2.897,1.823c-0.976,0.798-1.469,1.929-1.634,3.206c-0.461,3.569,1.824,6.31,5.001,6.917
	c3.452,0.66,6.567-0.103,9.085-2.699c1.969-2.03,3.31-4.413,3.902-7.191C521.385,250.005,521.493,248.865,521.181,247.412z"/>
<path fill="#FFFFFF" d="M297.521,221.394c0.447,1.301,0.255,2.538,0.249,3.748c-0.015,2.918,0.395,2.083-1.624,4.554
	c-6.333,7.752-12.677,15.496-19.037,23.227c-1.271,1.545-2.631,3.017-3.948,4.524c-0.445,0.509-0.885,1.022-1.323,1.527
	c0.177,0.173,0.278,0.36,0.379,0.359c4.387-0.011,8.775-0.039,13.163-0.064c3.035-0.017,3.245-0.224,3.365-3.276
	c0.015-0.372,0.068-0.743,0.1-1.081c1.685-0.403,7.891-0.474,10.489-0.127c0.07,0.406,0.207,0.844,0.211,1.283
	c0.02,2.31,0.031,4.621-0.007,6.93c-0.014,0.843-0.099,1.698-0.276,2.521c-0.388,1.798-1.436,3.079-3.273,3.499
	c-1.038,0.237-2.124,0.365-3.189,0.37c-6.777,0.032-13.554,0.017-20.331,0.017c-4.698,0-9.395,0.004-14.093-0.004
	c-0.754-0.001-1.508-0.056-2.361-0.091c-0.283-1.068-0.164-2.063-0.174-3.042c-0.01-1-0.08-2.019,0.087-2.993
	c0.095-0.551,0.57-1.065,0.951-1.533c2.769-3.406,5.557-6.796,8.339-10.19c4.1-5.003,8.189-10.015,12.307-15.003
	c1.126-1.364,2.332-2.662,3.515-3.978c0.25-0.278,0.487-0.542,0.756-1.07c-0.49-0.062-0.763-0.128-1.036-0.128
	c-3.619,0.012-7.239,0.028-10.858,0.056c-2.69,0.021-2.968,0.31-3.072,3.079c-0.014,0.384-0.049,0.767-0.088,1.149
	c-0.007,0.066-0.081,0.124-0.124,0.186c-1.536,0.417-7.425,0.515-10.397,0.156c-0.077-0.394-0.23-0.825-0.234-1.257
	c-0.024-2.387-0.029-4.775,0.001-7.162c0.009-0.687,0.103-1.383,0.247-2.056c0.547-2.562,1.964-3.849,4.568-4.151
	c0.686-0.08,1.384-0.075,2.076-0.076c10.858-0.005,21.717-0.006,32.575,0C296.131,221.297,296.81,221.359,297.521,221.394z"/>
<path fill="#FFFFFF" d="M254.024,288.805c-0.013,1.795-1.471,3.245-3.206,3.189c-1.641-0.053-3.015-1.462-3.061-3.14
	c-0.049-1.782,1.362-3.256,3.127-3.267C252.686,285.577,254.037,286.961,254.024,288.805z"/>
<path fill="#FFFFFF" d="M390.607,291.997c-1.744-0.052-3.077-1.54-3.015-3.365c0.062-1.832,1.47-3.131,3.296-3.039
	c1.682,0.085,2.912,1.443,2.903,3.205C393.78,290.609,392.347,292.049,390.607,291.997z"/>
<g>
	<path fill="#FFFFFF" d="M263.492,281.156h8.552v2.903h-2.819v12.569h-2.987v-12.569h-2.746V281.156z"/>
	<path fill="#FFFFFF" d="M285.105,291.738h-9.225c0.134,0.814,0.489,1.46,1.068,1.94c0.578,0.48,1.316,0.721,2.214,0.721
		c1.072,0,1.995-0.375,2.767-1.126l2.419,1.136c-0.604,0.856-1.325,1.488-2.167,1.898c-0.842,0.411-1.841,0.616-2.998,0.616
		c-1.795,0-3.257-0.566-4.386-1.699c-1.129-1.132-1.693-2.551-1.693-4.255c0-1.745,0.562-3.195,1.689-4.349
		c1.125-1.153,2.536-1.73,4.233-1.73c1.802,0,3.267,0.577,4.396,1.73c1.129,1.153,1.693,2.677,1.693,4.57L285.105,291.738z
		 M282.234,289.476c-0.19-0.638-0.564-1.157-1.122-1.557c-0.559-0.399-1.206-0.6-1.944-0.6c-0.801,0-1.503,0.225-2.107,0.673
		c-0.38,0.281-0.73,0.775-1.054,1.483H282.234z"/>
	<path fill="#FFFFFF" d="M298.524,287.499l-2.391,1.315c-0.449-0.47-0.894-0.795-1.332-0.978c-0.439-0.183-0.953-0.273-1.543-0.273
		c-1.074,0-1.942,0.32-2.607,0.961c-0.663,0.641-0.995,1.461-0.995,2.462c0,0.974,0.319,1.768,0.959,2.385
		c0.639,0.616,1.478,0.924,2.517,0.924c1.285,0,2.285-0.439,3.001-1.315l2.265,1.55c-1.227,1.597-2.959,2.395-5.196,2.395
		c-2.013,0-3.589-0.597-4.728-1.788c-1.14-1.192-1.71-2.588-1.71-4.187c0-1.108,0.277-2.128,0.831-3.061
		c0.555-0.933,1.327-1.666,2.319-2.198c0.992-0.533,2.103-0.8,3.329-0.8c1.136,0,2.156,0.227,3.061,0.679
		C297.21,286.021,297.949,286.665,298.524,287.499z"/>
	<path fill="#FFFFFF" d="M301.004,285.185h2.872v1.173c0.65-0.55,1.24-0.932,1.769-1.146c0.528-0.215,1.069-0.322,1.623-0.322
		c1.134,0,2.097,0.397,2.888,1.189c0.665,0.673,0.998,1.669,0.998,2.987v7.562h-2.84v-5.012c0-1.365-0.062-2.273-0.184-2.721
		c-0.123-0.448-0.336-0.79-0.641-1.024c-0.304-0.234-0.68-0.352-1.128-0.352c-0.58,0-1.079,0.194-1.495,0.583
		c-0.416,0.389-0.705,0.926-0.865,1.612c-0.084,0.357-0.126,1.132-0.126,2.322v4.591h-2.872V285.185z"/>
	<path fill="#FFFFFF" d="M319.197,284.89c1.08,0,2.095,0.271,3.045,0.81c0.95,0.54,1.691,1.273,2.225,2.198
		c0.533,0.926,0.8,1.925,0.8,2.998c0,1.08-0.269,2.09-0.805,3.029c-0.537,0.939-1.268,1.674-2.193,2.203
		c-0.926,0.529-1.945,0.795-3.061,0.795c-1.641,0-3.042-0.584-4.202-1.752c-1.16-1.167-1.741-2.585-1.741-4.254
		c0-1.788,0.656-3.278,1.968-4.471C316.382,285.409,317.704,284.89,319.197,284.89z M319.245,287.594
		c-0.893,0-1.636,0.31-2.228,0.931c-0.594,0.621-0.891,1.415-0.891,2.383c0,0.995,0.293,1.802,0.88,2.419
		c0.586,0.617,1.329,0.926,2.229,0.926c0.898,0,1.646-0.312,2.244-0.937c0.597-0.624,0.896-1.427,0.896-2.408
		c0-0.981-0.294-1.779-0.88-2.393C320.907,287.9,320.158,287.594,319.245,287.594z"/>
	<path fill="#FFFFFF" d="M327.188,280.767h2.872v15.861h-2.872V280.767z"/>
	<path fill="#FFFFFF" d="M337.935,284.89c1.08,0,2.095,0.271,3.045,0.81c0.95,0.54,1.691,1.273,2.225,2.198
		c0.533,0.926,0.8,1.925,0.8,2.998c0,1.08-0.269,2.09-0.805,3.029c-0.537,0.939-1.268,1.674-2.193,2.203
		c-0.926,0.529-1.945,0.795-3.061,0.795c-1.641,0-3.042-0.584-4.202-1.752c-1.16-1.167-1.741-2.585-1.741-4.254
		c0-1.788,0.656-3.278,1.968-4.471C335.12,285.409,336.442,284.89,337.935,284.89z M337.983,287.594
		c-0.893,0-1.636,0.31-2.229,0.931c-0.594,0.621-0.891,1.415-0.891,2.383c0,0.995,0.293,1.802,0.88,2.419
		c0.586,0.617,1.329,0.926,2.229,0.926c0.898,0,1.646-0.312,2.244-0.937c0.597-0.624,0.896-1.427,0.896-2.408
		c0-0.981-0.294-1.779-0.88-2.393C339.645,287.9,338.896,287.594,337.983,287.594z"/>
	<path fill="#FFFFFF" d="M354.699,285.185h2.86v9.803c0,1.935-0.389,3.358-1.167,4.271c-1.045,1.233-2.619,1.851-4.723,1.851
		c-1.122,0-2.065-0.14-2.829-0.421c-0.765-0.28-1.41-0.692-1.935-1.235c-0.526-0.544-0.915-1.204-1.168-1.982h3.166
		c0.28,0.322,0.642,0.565,1.084,0.73c0.441,0.165,0.964,0.247,1.566,0.247c0.772,0,1.393-0.119,1.862-0.357
		c0.47-0.238,0.801-0.547,0.994-0.926c0.192-0.378,0.289-1.03,0.289-1.956c-0.505,0.505-1.034,0.868-1.588,1.089
		c-0.555,0.221-1.182,0.331-1.883,0.331c-1.536,0-2.833-0.554-3.893-1.662c-1.059-1.107-1.588-2.51-1.588-4.207
		c0-1.816,0.561-3.274,1.683-4.376c1.017-0.995,2.23-1.493,3.64-1.493c0.659,0,1.281,0.121,1.867,0.363
		c0.585,0.241,1.173,0.64,1.762,1.193V285.185z M351.723,287.573c-0.904,0-1.651,0.303-2.24,0.909
		c-0.589,0.607-0.884,1.369-0.884,2.288c0,0.953,0.302,1.735,0.904,2.346c0.603,0.609,1.36,0.915,2.272,0.915
		c0.89,0,1.625-0.298,2.203-0.895c0.578-0.596,0.868-1.378,0.868-2.346c0-0.953-0.291-1.729-0.873-2.324
		C353.392,287.871,352.641,287.573,351.723,287.573z"/>
	<path fill="#FFFFFF" d="M361.476,280.472c0.504,0,0.936,0.183,1.296,0.547c0.359,0.365,0.54,0.807,0.54,1.326
		c0,0.512-0.179,0.948-0.535,1.309c-0.357,0.361-0.783,0.542-1.279,0.542c-0.511,0-0.946-0.184-1.306-0.552
		c-0.36-0.368-0.54-0.815-0.54-1.342c0-0.505,0.178-0.935,0.534-1.293C360.543,280.651,360.973,280.472,361.476,280.472z
		 M360.04,285.185h2.872v11.443h-2.872V285.185z"/>
	<path fill="#FFFFFF" d="M373.858,285.185h2.871v11.443h-2.871v-1.21c-0.561,0.533-1.122,0.917-1.687,1.152
		c-0.563,0.234-1.175,0.352-1.833,0.352c-1.478,0-2.756-0.573-3.835-1.72c-1.078-1.146-1.617-2.572-1.617-4.276
		c0-1.767,0.522-3.215,1.565-4.344c1.043-1.129,2.311-1.693,3.803-1.693c0.686,0,1.331,0.13,1.933,0.39
		c0.603,0.259,1.159,0.648,1.671,1.167V285.185z M370.84,287.541c-0.888,0-1.625,0.314-2.212,0.941
		c-0.587,0.628-0.881,1.433-0.881,2.414c0,0.988,0.299,1.803,0.896,2.44c0.598,0.638,1.333,0.957,2.207,0.957
		c0.901,0,1.649-0.314,2.243-0.941c0.594-0.628,0.891-1.45,0.891-2.467c0-0.995-0.297-1.802-0.891-2.419
		C372.5,287.849,371.748,287.541,370.84,287.541z"/>
</g>
<g>
	<path fill="#FFFFFF" d="M404.773,281.066h2.924v15.473h-2.924V281.066z"/>
	<path fill="#FFFFFF" d="M410.587,285.095h2.872v1.173c0.65-0.55,1.24-0.932,1.769-1.146c0.528-0.215,1.069-0.322,1.623-0.322
		c1.134,0,2.097,0.396,2.888,1.189c0.665,0.673,0.998,1.669,0.998,2.987v7.562h-2.84v-5.012c0-1.365-0.062-2.272-0.184-2.721
		c-0.123-0.448-0.336-0.79-0.641-1.025c-0.304-0.234-0.68-0.352-1.128-0.352c-0.58,0-1.079,0.194-1.495,0.583
		c-0.416,0.389-0.705,0.926-0.865,1.612c-0.084,0.357-0.126,1.132-0.126,2.322v4.591h-2.872V285.095z"/>
	<path fill="#FFFFFF" d="M428.781,284.801c1.08,0,2.095,0.271,3.045,0.81c0.95,0.54,1.691,1.273,2.225,2.198
		c0.533,0.926,0.8,1.925,0.8,2.998c0,1.08-0.269,2.09-0.805,3.029c-0.537,0.939-1.268,1.674-2.193,2.203
		c-0.926,0.529-1.945,0.795-3.06,0.795c-1.641,0-3.042-0.584-4.202-1.752c-1.16-1.167-1.741-2.585-1.741-4.254
		c0-1.788,0.656-3.278,1.968-4.471C425.966,285.319,427.288,284.801,428.781,284.801z M428.829,287.504
		c-0.893,0-1.636,0.311-2.229,0.931c-0.594,0.621-0.891,1.415-0.891,2.383c0,0.995,0.293,1.802,0.88,2.419
		c0.586,0.617,1.329,0.926,2.229,0.926c0.898,0,1.646-0.312,2.244-0.936c0.597-0.624,0.896-1.427,0.896-2.408
		c0-0.982-0.294-1.779-0.88-2.394C430.491,287.81,429.742,287.504,428.829,287.504z"/>
	<path fill="#FFFFFF" d="M435.863,285.095h2.925l2.892,6.752l2.885-6.752h2.91l-4.869,11.443h-1.862L435.863,285.095z"/>
	<path fill="#FFFFFF" d="M457.491,285.095h2.871v11.443h-2.871v-1.21c-0.56,0.533-1.122,0.917-1.686,1.152
		c-0.564,0.234-1.175,0.353-1.833,0.353c-1.478,0-2.756-0.573-3.835-1.72c-1.078-1.147-1.617-2.572-1.617-4.276
		c0-1.767,0.521-3.215,1.565-4.344c1.043-1.129,2.31-1.693,3.803-1.693c0.686,0,1.331,0.13,1.933,0.39
		c0.603,0.259,1.159,0.648,1.671,1.167V285.095z M454.473,287.451c-0.888,0-1.625,0.314-2.212,0.941
		c-0.587,0.628-0.881,1.433-0.881,2.414c0,0.988,0.299,1.803,0.897,2.44c0.598,0.638,1.333,0.957,2.207,0.957
		c0.901,0,1.649-0.314,2.243-0.941c0.594-0.628,0.891-1.45,0.891-2.467c0-0.995-0.297-1.802-0.891-2.419
		C456.133,287.759,455.381,287.451,454.473,287.451z"/>
	<path fill="#FFFFFF" d="M474.359,287.409l-2.391,1.314c-0.449-0.47-0.894-0.795-1.332-0.978c-0.439-0.183-0.953-0.273-1.543-0.273
		c-1.074,0-1.942,0.32-2.607,0.961c-0.663,0.641-0.995,1.461-0.995,2.462c0,0.974,0.319,1.769,0.959,2.385
		c0.639,0.616,1.477,0.924,2.517,0.924c1.285,0,2.285-0.439,3.001-1.314l2.265,1.55c-1.228,1.597-2.959,2.395-5.196,2.395
		c-2.013,0-3.589-0.597-4.727-1.788c-1.14-1.192-1.71-2.588-1.71-4.186c0-1.108,0.277-2.128,0.831-3.061
		c0.555-0.933,1.327-1.666,2.319-2.198c0.992-0.533,2.102-0.8,3.329-0.8c1.136,0,2.156,0.227,3.06,0.679
		C473.045,285.931,473.784,286.575,474.359,287.409z M467.733,296.371h1.777l-0.126,0.483c0.469,0.105,0.839,0.31,1.109,0.613
		c0.27,0.305,0.404,0.639,0.404,1.002c0,0.566-0.238,1.052-0.715,1.458c-0.477,0.405-1.14,0.608-1.988,0.608
		c-0.686,0-1.465-0.161-2.335-0.484l0.379-1.357c0.505,0.161,0.999,0.242,1.483,0.242c0.357,0,0.624-0.068,0.799-0.205
		c0.176-0.137,0.264-0.317,0.264-0.542c0-0.182-0.067-0.326-0.2-0.431c-0.134-0.105-0.344-0.158-0.631-0.158l-0.589,0.021
		L467.733,296.371z"/>
	<path fill="#FFFFFF" d="M485.285,285.095h2.871v11.443h-2.871v-1.21c-0.561,0.533-1.122,0.917-1.687,1.152
		c-0.563,0.234-1.175,0.353-1.833,0.353c-1.478,0-2.756-0.573-3.835-1.72c-1.078-1.147-1.617-2.572-1.617-4.276
		c0-1.767,0.522-3.215,1.565-4.344c1.043-1.129,2.311-1.693,3.803-1.693c0.687,0,1.331,0.13,1.933,0.39
		c0.603,0.259,1.159,0.648,1.671,1.167V285.095z M479.301,282.96l-1.157-1.732c0.897-0.689,1.806-1.033,2.724-1.033
		c0.344,0,0.933,0.117,1.768,0.351c0.568,0.151,1.02,0.228,1.356,0.228c0.589,0,1.199-0.179,1.83-0.536l1.095,1.637
		c-0.884,0.753-1.739,1.129-2.566,1.129c-0.442,0-0.972-0.093-1.589-0.278c-0.505-0.145-0.824-0.231-0.957-0.259
		c-0.183-0.027-0.399-0.041-0.652-0.041C480.534,282.423,479.917,282.602,479.301,282.96z M482.267,287.451
		c-0.888,0-1.625,0.314-2.212,0.941c-0.587,0.628-0.881,1.433-0.881,2.414c0,0.988,0.299,1.803,0.896,2.44
		c0.598,0.638,1.333,0.957,2.207,0.957c0.901,0,1.65-0.314,2.243-0.941c0.594-0.628,0.891-1.45,0.891-2.467
		c0-0.995-0.297-1.802-0.891-2.419C483.927,287.759,483.175,287.451,482.267,287.451z"/>
	<path fill="#FFFFFF" d="M496.327,284.801c1.08,0,2.095,0.271,3.045,0.81c0.95,0.54,1.691,1.273,2.225,2.198
		c0.533,0.926,0.8,1.925,0.8,2.998c0,1.08-0.269,2.09-0.805,3.029c-0.537,0.939-1.268,1.674-2.193,2.203
		c-0.926,0.529-1.945,0.795-3.06,0.795c-1.641,0-3.042-0.584-4.202-1.752c-1.16-1.167-1.741-2.585-1.741-4.254
		c0-1.788,0.656-3.278,1.968-4.471C493.512,285.319,494.834,284.801,496.327,284.801z M496.375,287.504
		c-0.893,0-1.636,0.311-2.229,0.931c-0.594,0.621-0.891,1.415-0.891,2.383c0,0.995,0.293,1.802,0.88,2.419
		c0.586,0.617,1.329,0.926,2.229,0.926c0.898,0,1.646-0.312,2.244-0.936c0.597-0.624,0.895-1.427,0.895-2.408
		c0-0.982-0.294-1.779-0.88-2.394C498.037,287.81,497.288,287.504,496.375,287.504z"/>
</g>
<g>
	<path fill="#F38B00" d="M108.201,266.14c2.955,2.13,5.817,4.193,8.817,6.356c-6.111,7.133-13.1,12.921-21.394,17.066
		c-12.042,6.019-24.771,8.291-38.126,6.573c-27.946-3.596-48.51-23.778-55.103-47.608c-7.211-26.067,2.815-51.291,17.318-64.318
		c1.335,0.949,5.673,5.194,7.443,7.297c-1.175,1.374-2.378,2.75-3.547,4.153c-5.467,6.561-9.234,13.984-11.198,22.301
		c-7.267,30.776,12.174,59.831,40.852,66.317c17.623,3.985,33.607,0.167,47.712-11.173c1.913-1.538,3.567-3.397,5.338-5.11
		C106.915,267.413,107.507,266.822,108.201,266.14z"/>
	
		<rect x="48.672" y="225.815" transform="matrix(0.7084 -0.7058 0.7058 0.7084 -134.4269 137.2783)" fill="#F38B00" width="100.504" height="11.021"/>
	
		<rect x="47.961" y="212.823" transform="matrix(0.7084 -0.7058 0.7058 0.7084 -128.4433 123.2876)" fill="#F38B00" width="74.045" height="8.533"/>
	
		<rect x="47.135" y="201.461" transform="matrix(0.7084 -0.7058 0.7058 0.7084 -123.3625 110.8123)" fill="#F38B00" width="50.582" height="6.482"/>
	
		<rect x="51.916" y="190.347" transform="matrix(0.7084 -0.7058 0.7058 0.7084 -118.5052 99.0302)" fill="#F38B00" width="17.359" height="5.172"/>
</g>
<g>
	<path fill="#FFFFFF" d="M175.421,281.336h2.891l3.614,10.872l3.646-10.872h2.889l2.615,15.588h-2.869l-1.671-9.845l-3.312,9.845
		h-2.615l-3.282-9.845l-1.712,9.845h-2.893L175.421,281.336z"/>
	<path fill="#FFFFFF" d="M204.454,291.996h-9.293c0.134,0.82,0.493,1.472,1.076,1.955c0.583,0.484,1.326,0.727,2.23,0.727
		c1.081,0,2.01-0.378,2.787-1.134l2.438,1.143c-0.608,0.862-1.335,1.5-2.183,1.913c-0.848,0.413-1.855,0.62-3.02,0.62
		c-1.809,0-3.282-0.57-4.419-1.712c-1.137-1.141-1.706-2.569-1.706-4.286c0-1.759,0.567-3.22,1.701-4.382
		c1.134-1.162,2.556-1.743,4.265-1.743c1.816,0,3.292,0.581,4.43,1.743c1.137,1.162,1.706,2.697,1.706,4.604L204.454,291.996z
		 M201.561,289.717c-0.191-0.643-0.568-1.165-1.13-1.568c-0.562-0.402-1.215-0.604-1.958-0.604c-0.807,0-1.514,0.226-2.123,0.678
		c-0.382,0.283-0.736,0.781-1.061,1.494H201.561z"/>
	<path fill="#FFFFFF" d="M215.088,280.944h2.893v15.979h-2.893v-1.219c-0.565,0.537-1.131,0.924-1.699,1.16
		c-0.568,0.237-1.184,0.355-1.847,0.355c-1.489,0-2.777-0.578-3.863-1.732c-1.087-1.155-1.63-2.591-1.63-4.308
		c0-1.78,0.525-3.239,1.577-4.377c1.051-1.137,2.328-1.706,3.831-1.706c0.691,0,1.34,0.131,1.947,0.392
		c0.607,0.261,1.168,0.653,1.683,1.176V280.944z M212.047,287.768c-0.895,0-1.637,0.316-2.229,0.948
		c-0.592,0.632-0.887,1.442-0.887,2.432c0,0.996,0.301,1.815,0.903,2.459c0.602,0.643,1.343,0.964,2.223,0.964
		c0.908,0,1.662-0.316,2.26-0.948c0.598-0.632,0.897-1.461,0.897-2.485c0-1.003-0.299-1.815-0.897-2.436
		C213.719,288.079,212.962,287.768,212.047,287.768z"/>
	<path fill="#FFFFFF" d="M221.817,280.647c0.507,0,0.942,0.184,1.305,0.551c0.363,0.367,0.544,0.812,0.544,1.335
		c0,0.516-0.18,0.956-0.539,1.319c-0.359,0.364-0.789,0.546-1.289,0.546c-0.515,0-0.953-0.186-1.316-0.557
		c-0.363-0.37-0.544-0.821-0.544-1.351c0-0.509,0.179-0.943,0.539-1.304C220.877,280.827,221.31,280.647,221.817,280.647z
		 M220.371,285.394h2.893v11.529h-2.893V285.394z"/>
	<path fill="#FFFFFF" d="M234.184,285.394h2.893v11.529h-2.893v-1.219c-0.565,0.537-1.131,0.924-1.699,1.16
		c-0.568,0.237-1.184,0.355-1.847,0.355c-1.489,0-2.777-0.578-3.863-1.732c-1.087-1.155-1.63-2.591-1.63-4.308
		c0-1.78,0.525-3.239,1.577-4.377c1.051-1.137,2.328-1.706,3.831-1.706c0.691,0,1.34,0.131,1.947,0.392
		c0.607,0.261,1.167,0.653,1.683,1.176V285.394z M231.143,287.768c-0.895,0-1.637,0.316-2.229,0.948
		c-0.592,0.632-0.887,1.442-0.887,2.432c0,0.996,0.301,1.815,0.903,2.459c0.602,0.643,1.343,0.964,2.223,0.964
		c0.908,0,1.662-0.316,2.26-0.948c0.598-0.632,0.897-1.461,0.897-2.485c0-1.003-0.299-1.815-0.897-2.436
		C232.815,288.079,232.058,287.768,231.143,287.768z"/>
</g>
</svg>
